<svg xmlns="http://www.w3.org/2000/svg" viewBox="0 0 570.27 105.42"><defs><style>.cls-1{fill:#fff;}</style></defs><title>Braiins OS+ white</title><g id="Vrstva_2" data-name="Vrstva 2"><g id="Vrstva_1-2" data-name="Vrstva 1"><path class="cls-1" d="M96.75,43.89C96.75,34.61,91,28.33,82,28.33H58.91V77.05H69.53V59.18h7.61l8.51,17.87h11.8L87.89,57.92c5.93-2.23,8.86-7.47,8.86-14m-11,1.54c0,3.14-2,4.81-5.1,4.81H69.53V37.54H80.69c3.15,0,5.1,1.67,5.1,4.82Z"/><polygon class="cls-1" points="255.55 61.13 255.34 61.13 250.66 51.36 237.34 28.33 225.74 28.33 225.74 77.05 235.73 77.05 235.73 44.24 235.94 44.24 240.61 54.02 253.95 77.05 265.53 77.05 265.53 28.33 255.55 28.33 255.55 61.13"/><polygon class="cls-1" points="171.37 28.33 160.76 28.33 160.76 28.33 160.76 36.77 170.83 70.17 170.83 77.05 181.44 77.05 181.44 68.61 171.37 35.21 171.37 28.33"/><polygon class="cls-1" points="201.49 28.33 190.88 28.33 190.88 28.33 190.88 36.77 200.95 70.17 200.95 77.05 211.56 77.05 211.56 68.61 201.49 35.21 201.49 28.33"/><polygon class="cls-1" points="139.2 28.33 121.5 28.33 119.43 35.2 109.36 68.6 109.36 77.04 119.98 77.04 119.98 70.16 129.69 37.95 131.01 37.95 140.72 70.16 140.72 77.04 151.34 77.04 151.34 68.6 141.27 35.2 139.2 28.33"/><path class="cls-1" d="M312.8,52.41q-3.63-3.49-11.1-4.68L296.82,47a10.35,10.35,0,0,1-4.4-1.44,3.87,3.87,0,0,1-1.26-3.31c0-2.93,2.33-4.47,7-4.47h14.94V28.33H298.14q-8.24.14-12.91,4.05a13,13,0,0,0-4.68,10.47c0,4.09,1.21,7.35,3.63,9.63s6.17,3.72,11.24,4.33l4.82.62a7.19,7.19,0,0,1,4.4,1.79,4.89,4.89,0,0,1,1.25,3.45A5.31,5.31,0,0,1,303.94,67a8.85,8.85,0,0,1-5.73,1.6A15.74,15.74,0,0,1,286,63l-6.91,7q7.05,7.89,18.36,7.89a24.23,24.23,0,0,0,10.22-2,14.88,14.88,0,0,0,6.53-5.55,15.18,15.18,0,0,0,2.23-8.24q0-6.21-3.63-9.7"/><path class="cls-1" d="M0,28.33v8.44H6.3V77.06H32.13a11.56,11.56,0,0,0,5-1.09,12.26,12.26,0,0,0,4-3,14.08,14.08,0,0,0,2.62-4.43,15.48,15.48,0,0,0,.94-5.42c0-6.42-3.85-10.16-7.79-11.54V51.2c3.33-1.22,5.9-4.63,5.9-10.37a12.33,12.33,0,0,0-3.38-9.08Q36,28.33,30,28.33Zm16.91,8.94H27.45a4.43,4.43,0,0,1,3.28,1.18,4.47,4.47,0,0,1,1.19,3.29v2.09a4.12,4.12,0,0,1-4.47,4.47H16.91ZM33.66,63.72A4.27,4.27,0,0,1,32.44,67a4.62,4.62,0,0,1-3.31,1.15H16.91V57H29.13a4.66,4.66,0,0,1,3.31,1.15,4.27,4.27,0,0,1,1.22,3.25Z"/><path class="cls-1" d="M393.49,37.88A14.81,14.81,0,1,0,408.3,52.69a14.81,14.81,0,0,0-14.81-14.81"/><path class="cls-1" d="M477.5,14.92V.05H335.35V18.3l21.78,72.24v14.88H499.27V87.16Zm-84,63a25.2,25.2,0,1,1,25.2-25.2,25.19,25.19,0,0,1-25.2,25.2m68-7.54A14.82,14.82,0,0,1,455,75.9a24.23,24.23,0,0,1-10.22,2q-11.31,0-18.36-7.89l6.91-7A15.74,15.74,0,0,0,445.5,68.6a8.82,8.82,0,0,0,5.72-1.6,5.31,5.31,0,0,0,1.95-4.33,4.89,4.89,0,0,0-1.25-3.46,7.25,7.25,0,0,0-4.4-1.78l-4.82-.62q-7.6-.91-11.23-4.33c-2.42-2.28-3.63-5.54-3.63-9.63a13,13,0,0,1,4.67-10.47q4.68-3.92,12.92-4.05h14.93v9.42H445.43c-4.66,0-7,1.54-7,4.47a3.89,3.89,0,0,0,1.25,3.31A10.23,10.23,0,0,0,444.1,47l4.89.77q7.47,1.19,11.09,4.68t3.63,9.7a15.18,15.18,0,0,1-2.23,8.24"/><path class="cls-1" d="M539.49,9v7.2l.39,1.27,21.39,71v7.94h-61.2V89.16l-.39-1.27-21.39-71V9Zm9-9h-79.2V18.25l21.78,72.23v14.89h79.2V87.11L548.49,14.87Z"/><polygon class="cls-1" points="537.92 57.65 524.76 57.65 524.76 71.98 514.8 71.98 514.8 57.65 501.64 57.65 501.64 48.46 514.8 48.46 514.8 34.13 524.76 34.13 524.76 48.46 537.92 48.46 537.92 57.65"/></g></g></svg>