<svg width="116" height="26" viewBox="0 0 116 26" fill="none" xmlns="http://www.w3.org/2000/svg">
<g clip-path="url(#clip0)">
<path d="M24.376 10.8333C24.376 8.545 22.9636 7 20.7399 7H15.042V19H17.6614V14.595H19.5395L21.6364 19H24.5479L22.1873 14.285C23.6514 13.735 24.376 12.445 24.376 10.8333ZM21.6714 11.2117C21.6714 11.985 21.189 12.3983 20.4127 12.3983H17.6564V9.26167H20.4127C21.189 9.26167 21.6714 9.675 21.6714 10.4483V11.2117Z" fill="white"/>
<path d="M63.5752 15.0766H63.5218L62.3682 12.6683L59.0777 6.99164H56.2162V18.9983H58.6803V10.9133H58.7321L59.8873 13.3216L63.1779 18.9983H66.0377V6.99164H63.5752V15.0766Z" fill="white"/>
<path d="M42.7953 6.99331L40.1759 6.99164V6.99331V9.07331L42.6617 17.3016V18.9983H45.2811V16.9166L42.7953 8.6883V6.99331Z" fill="white"/>
<path d="M50.2312 6.99331L47.6101 6.99164V6.99331V9.07331L50.0959 17.3016V18.9983H52.7153V16.9166L50.2312 8.6883V6.99331Z" fill="white"/>
<path d="M34.8536 6.99164H30.4863L29.9755 8.68664L27.4896 16.9166V18.9966H30.109V17.3016L32.5064 9.3633H32.8336L35.2309 17.3016V18.9966H37.8503V16.9166L35.3645 8.68664L34.8536 6.99164Z" fill="white"/>
<path d="M77.7056 12.9267C77.1079 12.3533 76.1947 11.9689 74.966 11.7733L73.7606 11.585C73.2431 11.505 72.8825 11.3867 72.6755 11.2317C72.4685 11.0767 72.365 10.805 72.365 10.415C72.365 9.69334 72.9393 9.315 74.0879 9.315H77.7757V7H74.0879C72.7322 7.02333 71.6699 7.35667 70.9008 8C70.1312 8.64167 69.7456 9.51333 69.7456 10.58C69.7456 11.59 70.0444 12.3917 70.6421 12.9533C71.2397 13.515 72.163 13.8717 73.4151 14.02L74.6037 14.175C75.1212 14.2439 75.4835 14.39 75.6905 14.6133C75.901 14.8462 76.0123 15.1516 76.0011 15.465C76.0089 15.6681 75.9692 15.8703 75.8852 16.0554C75.8012 16.2406 75.6751 16.4036 75.5169 16.5317C75.1964 16.795 74.7256 16.9267 74.1045 16.9267C72.9226 16.9267 71.9175 16.4622 71.0895 15.5333L69.3833 17.2617C70.543 18.5572 72.0539 19.205 73.9159 19.205C74.783 19.2268 75.6444 19.0596 76.4401 18.715C77.1002 18.427 77.6606 17.951 78.0512 17.3467C78.4254 16.7365 78.6166 16.032 78.6021 15.3167C78.6021 14.2967 78.3032 13.5 77.7056 12.9267Z" fill="white"/>
<path d="M0.494263 7.00001V9.08001H2.04854V19H8.42424C8.85245 19.0045 9.27625 18.9134 9.66465 18.7333C10.0386 18.559 10.3727 18.31 10.6463 18.0017C10.9285 17.6815 11.1476 17.3112 11.2924 16.91C11.4494 16.4831 11.5285 16.0315 11.5261 15.5767C11.5261 13.9933 10.5762 13.0767 9.60288 12.7317V12.6283C10.4243 12.3283 11.0603 11.4883 11.0603 10.0733C11.0603 9.14335 10.7821 8.39779 10.2256 7.83668C9.66911 7.27557 8.89002 6.99446 7.88834 6.99335L0.494263 7.00001ZM4.66793 9.20335H7.27064C7.41882 9.19002 7.56813 9.20939 7.70799 9.26006C7.84784 9.31074 7.97483 9.39149 8.07996 9.4966C8.18509 9.60171 8.26578 9.72861 8.31633 9.86831C8.36688 10.008 8.38605 10.1571 8.37249 10.305V10.82C8.38605 10.9679 8.36688 11.117 8.31633 11.2567C8.26578 11.3964 8.18509 11.5233 8.07996 11.6284C7.97483 11.7335 7.84784 11.8143 7.70799 11.865C7.56813 11.9156 7.41882 11.935 7.27064 11.9217H4.66793V9.20335ZM8.80321 15.7233C8.81208 15.8703 8.78992 16.0174 8.73815 16.1552C8.68638 16.2931 8.60616 16.4185 8.5027 16.5233C8.2774 16.7205 7.9839 16.8222 7.68466 16.8067H4.66793V14.0467H7.68466C7.98403 14.0302 8.27785 14.132 8.5027 14.33C8.60642 14.4347 8.68681 14.5601 8.7386 14.6979C8.79038 14.8358 8.8124 14.9831 8.80321 15.13V15.7233Z" fill="white"/>
<path d="M93.7391 13C93.7382 12.1303 93.4264 11.2894 92.8598 10.6288C92.2932 9.96811 91.509 9.53104 90.6483 9.39621C89.7877 9.26138 88.9071 9.43764 88.165 9.89328C87.423 10.3489 86.8682 11.054 86.6005 11.8817L87.7991 15.8483C88.3364 16.2791 88.9848 16.5493 89.6693 16.6278C90.3539 16.7063 91.0467 16.59 91.6678 16.2921C92.289 15.9943 92.813 15.5271 93.1795 14.9446C93.546 14.362 93.74 13.6879 93.7391 13Z" fill="white"/>
<path d="M110.492 3.68833V0.0216675H84.3784V4.52167L85.6288 8.66667C86.3844 7.89253 87.3292 7.3286 88.3699 7.0306C89.4106 6.73261 90.5112 6.71087 91.5629 6.96753C92.6146 7.22419 93.581 7.75037 94.3666 8.49406C95.1522 9.23776 95.7299 10.1732 96.0425 11.2081C96.3551 12.2429 96.3918 13.3412 96.149 14.3945C95.9062 15.4478 95.3923 16.4197 94.6581 17.214C93.9239 18.0083 92.9948 18.5977 91.9625 18.9238C90.9303 19.2498 89.8307 19.3014 88.7725 19.0733L89.7541 22.325V25.9917H115.868V21.4917L110.492 3.68833ZM106.87 17.355C106.479 17.9597 105.919 18.4358 105.258 18.7233C104.463 19.068 103.601 19.2353 102.734 19.2133C100.874 19.2133 99.3641 18.5656 98.2033 17.27L99.9095 15.5317C100.278 15.9719 100.739 16.3251 101.26 16.566C101.782 16.8069 102.35 16.9295 102.925 16.925C103.544 16.925 104.015 16.7933 104.337 16.53C104.495 16.4016 104.62 16.2385 104.704 16.0534C104.788 15.8683 104.827 15.6663 104.819 15.4633C104.831 15.1499 104.719 14.8445 104.509 14.6117C104.303 14.3894 103.941 14.2433 103.424 14.1733L102.235 14.0183C100.983 13.8694 100.058 13.5139 99.4604 12.9517C98.8644 12.39 98.5656 11.5883 98.5656 10.5783C98.5656 9.51167 98.9495 8.64 99.7192 7.99833C100.489 7.35667 101.556 7.02333 102.906 6.99833H106.594V9.32167H102.906C101.758 9.32167 101.183 9.7 101.183 10.4217C101.183 10.8117 101.287 11.0839 101.494 11.2383C101.701 11.3928 102.063 11.5106 102.579 11.5917L103.786 11.78C105.01 11.9756 105.923 12.36 106.526 12.9333C107.128 13.5067 107.426 14.3033 107.42 15.3233C107.432 16.0371 107.238 16.7391 106.863 17.3467L106.87 17.355Z" fill="white"/>
</g>
<defs>
<clipPath id="clip0">
<rect width="116" height="26" fill="white"/>
</clipPath>
</defs>
</svg>
